{
  "asset": {
    "version": "2.0",
    "generator": "THREE.GLTFExporter"
  },
  "scenes": [
    {
      "nodes": [
        0
      ]
    }
  ],
  "scene": 0,
  "nodes": [
    {
      "children": [
        6
      ],
      "matrix": [
        0.01,
        0,
        0,
        0,
        0,
        0.01,
        0,
        0,
        0,
        0,
        0.01,
        0,
        0,
        0,
        0,
        1
      ]
    },
    {
      "matrix": [
        2.9802322609739924e-8,
        -0.9673206996667162,
        -0.2535560371915828,
        0,
        -8.326672684688664e-17,
        -0.25355603719158293,
        0.9673206996667166,
        0,
        -0.9999999999999996,
        -2.8828403404493164e-8,
        -7.556558750956635e-9,
        0,
        129.99999999999997,
        6.596833591196729e-15,
        2.003185044696308e-14,
        1
      ],
      "name": "Torus 2",
      "mesh": 0
    },
    {
      "matrix": [
        3.3306690738754696e-16,
        -0.9673206996667166,
        -0.2535560371915828,
        0,
        -8.326672684688667e-17,
        -0.25355603719158254,
        0.9673206996667165,
        0,
        -0.9999999999999999,
        -7.03759376307012e-18,
        2.6848542824162672e-17,
        0,
        -129.99999999999997,
        -5.799371032317251e-15,
        2.0570041618606818e-14,
        1
      ],
      "name": "Torus",
      "mesh": 1
    },
    {
      "matrix": [
        1,
        0,
        0,
        0,
        0,
        0.9999094671918701,
        0.013455757877966407,
        0,
        0,
        -0.013455757877966407,
        0.9999094671918701,
        0,
        0,
        0,
        -17.5446386725115,
        1
      ],
      "name": "occhi",
      "children": [
        1,
        2
      ]
    },
    {
      "matrix": [
        0.8754602539479026,
        -0.38226052102658015,
        -0.2957131005247506,
        0,
        0.4001568147972077,
        0.9164466834308219,
        0,
        0,
        0.27100529022295294,
        -0.11833161239979069,
        0.9552767987227779,
        0,
        0,
        0,
        0,
        1
      ],
      "name": "Directional Light",
      "extensions": {
        "KHR_lights_punctual": {
          "light": 0
        }
      }
    },
    {
      "matrix": [
        0.9519352768710558,
        -1.4789081355381928e-8,
        0.30629924689497057,
        0,
        0.037497009848590945,
        0.9924784480480388,
        -0.11653542127855855,
        0,
        -0.3039953994731516,
        0.12241948439752647,
        0.9447752467857119,
        0,
        -249.23049470007328,
        63.00403016724806,
        944.775246785728,
        1
      ],
      "name": "Personal Camera",
      "camera": 0
    },
    {
      "name": "Scene 1",
      "children": [
        3,
        4,
        5
      ]
    }
  ],
  "bufferViews": [
    {
      "buffer": 0,
      "byteOffset": 0,
      "byteLength": 13068,
      "target": 34962,
      "byteStride": 12
    },
    {
      "buffer": 0,
      "byteOffset": 13068,
      "byteLength": 13068,
      "target": 34962,
      "byteStride": 12
    },
    {
      "buffer": 0,
      "byteOffset": 26136,
      "byteLength": 8712,
      "target": 34962,
      "byteStride": 8
    },
    {
      "buffer": 0,
      "byteOffset": 34848,
      "byteLength": 11904,
      "target": 34963
    },
    {
      "buffer": 0,
      "byteOffset": 46752,
      "byteLength": 13068,
      "target": 34962,
      "byteStride": 12
    },
    {
      "buffer": 0,
      "byteOffset": 59820,
      "byteLength": 13068,
      "target": 34962,
      "byteStride": 12
    },
    {
      "buffer": 0,
      "byteOffset": 72888,
      "byteLength": 8712,
      "target": 34962,
      "byteStride": 8
    },
    {
      "buffer": 0,
      "byteOffset": 81600,
      "byteLength": 11904,
      "target": 34963
    }
  ],
  "buffers": [
    {
      "byteLength": 93504,
      "uri": "data:application/octet-stream;base64,"
    }
  ],
  "accessors": [
    {
      "bufferView": 0,
      "componentType": 5126,
      "count": 1089,
      "max": [
        35.5,
        750,
        35.5004997253418
      ],
      "min": [
        -495.032958984375,
        512.4303588867188,
        -35.5004997253418
      ],
      "type": "VEC3"
    },
    {
      "bufferView": 1,
      "componentType": 5126,
      "count": 1089,
      "max": [
        1,
        1,
        1
      ],
      "min": [
        -0.9957801699638367,
        -1,
        -1
      ],
      "type": "VEC3"
    },
    {
      "bufferView": 2,
      "componentType": 5126,
      "count": 1089,
      "max": [
        1,
        1
      ],
      "min": [
        0,
        0
      ],
      "type": "VEC2"
    },
    {
      "bufferView": 3,
      "componentType": 5123,
      "count": 5952,
      "max": [
        1087
      ],
      "min": [
        1
      ],
      "type": "SCALAR"
    },
    {
      "bufferView": 4,
      "componentType": 5126,
      "count": 1089,
      "max": [
        35.5,
        750,
        35.5004997253418
      ],
      "min": [
        -495.032958984375,
        512.4303588867188,
        -35.5004997253418
      ],
      "type": "VEC3"
    },
    {
      "bufferView": 5,
      "componentType": 5126,
      "count": 1089,
      "max": [
        1,
        1,
        1
      ],
      "min": [
        -0.9957801699638367,
        -1,
        -1
      ],
      "type": "VEC3"
    },
    {
      "bufferView": 6,
      "componentType": 5126,
      "count": 1089,
      "max": [
        1,
        1
      ],
      "min": [
        0,
        0
      ],
      "type": "VEC2"
    },
    {
      "bufferView": 7,
      "componentType": 5123,
      "count": 5952,
      "max": [
        1087
      ],
      "min": [
        1
      ],
      "type": "SCALAR"
    }
  ],
  "meshes": [
    {
      "primitives": [
        {
          "mode": 4,
          "attributes": {
            "POSITION": 0,
            "NORMAL": 1,
            "TEXCOORD_0": 2
          },
          "extras": {
            "parameters": {
              "width": 1500,
              "radialSegments": 32,
              "tubularSegments": 120,
              "arc": 40,
              "cornerRadius": 128,
              "cornerSegments": 8,
              "height": 1500,
              "depth": 71,
              "type": "TorusGeometry"
            },
            "type": "TorusGeometry"
          },
          "indices": 3
        }
      ]
    },
    {
      "primitives": [
        {
          "mode": 4,
          "attributes": {
            "POSITION": 4,
            "NORMAL": 5,
            "TEXCOORD_0": 6
          },
          "extras": {
            "parameters": {
              "width": 1500,
              "radialSegments": 32,
              "tubularSegments": 120,
              "arc": 40,
              "cornerRadius": 128,
              "cornerSegments": 8,
              "height": 1500,
              "depth": 71,
              "type": "TorusGeometry"
            },
            "type": "TorusGeometry"
          },
          "indices": 7
        }
      ]
    }
  ],
  "extensions": {
    "KHR_lights_punctual": {
      "lights": [
        {
          "name": "Directional Light",
          "color": [
            1,
            1,
            1
          ],
          "intensity": 0.7,
          "type": "directional"
        }
      ]
    }
  },
  "cameras": [
    {
      "type": "orthographic",
      "orthographic": {
        "xmag": 35.22196951343727,
        "ymag": 21.03534290385837,
        "zfar": 100000,
        "znear": 0
      },
      "name": "Camera"
    }
  ],
  "extensionsUsed": [
    "KHR_lights_punctual"
  ]
}